<svg xmlns:xlink="http://www.w3.org/1999/xlink" xmlns="http://www.w3.org/2000/svg" width="32" height="32"><defs><symbol id="igIcon" viewBox="0 0 566.93 566.93">
	<path d="M283.465,144.74c47.244,0,52.914,0,71.812,1.891c47.244,1.89,69.921,24.566,71.812,71.812
	c0,18.897,1.89,24.566,1.89,71.812s0,52.914-1.89,71.812c-1.891,47.244-24.566,69.921-71.812,71.812
	c-18.896,0-24.566,1.891-71.812,1.891s-52.913,0-71.813-1.891c-47.242-1.891-69.921-24.566-71.811-71.812
	c0-18.896-1.89-24.566-1.89-71.812s0-52.913,1.89-71.812c1.89-47.244,24.567-69.922,71.811-71.812
	C230.552,144.74,236.22,144.74,283.465,144.74z M283.465,112.614c-47.244,0-52.913,0-71.813,1.891
	c-64.252,3.78-100.156,37.796-102.047,102.048c0,18.897-1.89,24.566-1.89,71.811c0,47.245,0,52.913,1.89,71.813
	c3.779,64.252,37.795,100.156,102.047,102.047c18.898,0,24.567,1.89,71.813,1.89s52.914,0,71.812-1.89
	c64.252-3.779,100.157-37.795,102.047-102.047c0-18.898,1.891-24.567,1.891-71.813c0-47.244,0-52.912-1.891-71.811
	c-3.778-64.252-37.795-100.158-102.047-102.048C336.379,112.614,330.709,112.614,283.465,112.614z M283.465,197.653
	c-49.134,0-90.709,39.687-90.709,90.709c0,51.023,39.686,90.709,90.709,90.709c51.022,0,90.709-39.686,90.709-90.709
	C374.174,239.228,332.598,197.653,283.465,197.653z M283.465,346.945c-32.126,0-58.583-26.457-58.583-58.583
	s26.457-58.582,58.583-58.582s58.583,26.456,58.583,58.582S315.591,346.945,283.465,346.945z M377.952,173.087
	c-11.339,0-20.786,9.449-20.786,20.787c0,11.339,9.447,20.788,20.786,20.788s20.787-9.449,20.787-20.788
	C398.74,182.536,389.291,173.087,377.952,173.087z"></path>
</symbol></defs><use xlink:href="#igIcon"></use></svg>