<svg xmlns:xlink="http://www.w3.org/1999/xlink" xmlns="http://www.w3.org/2000/svg" width="32" height="32"><defs><symbol id="lineIcon" viewBox="0 0 566.93 566.93">
	<g id="Line">
	<path d="M476.22,268.346c0-83.149-83.149-149.291-185.197-149.291c-102.047,0-185.195,68.031-185.195,149.291
		c0,73.701,66.142,136.063,154.961,147.401c5.669,1.891,13.228,3.779,17.008,9.448c1.89,3.779,1.89,11.339,0,17.008l-1.892,15.118
		c0,3.779-3.778,18.897,15.118,9.449c18.898-7.56,105.827-62.362,145.513-107.717C462.991,330.709,476.22,302.362,476.22,268.346z
		 M183.307,228.662c1.89,0,3.779,1.89,3.779,3.778v64.252h35.905c1.89,0,3.778,1.891,3.778,3.779v13.229
		c0,1.89-1.89,3.778-3.778,3.778h-52.913c-1.891,0-1.891,0-1.891-1.89l0,0l0,0l0,0l0,0l-1.89-1.891v-81.26
		c0-1.89,1.89-3.778,3.779-3.778L183.307,228.662L183.307,228.662z M413.858,228.662c1.891,0,3.78,1.89,3.78,3.778v13.229
		c0,1.89-1.891,3.779-3.78,3.779h-35.905v13.229h35.905c1.891,0,3.78,1.89,3.78,3.779v13.229c0,1.891-1.891,3.779-3.78,3.779
		h-35.905v13.229h35.905c1.891,0,3.78,1.891,3.78,3.779v13.229c0,1.89-1.891,3.778-3.78,3.778h-51.022c-1.891,0-1.891,0-1.891-1.89
		l0,0l0,0l-1.89-1.89v-81.261c0-1.89,0-1.89,1.89-1.89l0,0l0,0l1.891-1.89L413.858,228.662L413.858,228.662z M253.228,228.662
		c1.891,0,3.779,1.89,3.779,3.778v81.261c0,1.89-1.89,3.778-3.779,3.778H240c-1.891,0-3.779-1.89-3.779-3.778v-81.261
		c0-1.89,1.89-3.778,3.779-3.778H253.228z M285.354,228.662L285.354,228.662L285.354,228.662L285.354,228.662L285.354,228.662
		L285.354,228.662L285.354,228.662L285.354,228.662L285.354,228.662L285.354,228.662L285.354,228.662L285.354,228.662h1.891l0,0l0,0
		l0,0l0,0l0,0l0,0l0,0l35.905,49.134v-47.244c0-1.89,1.89-3.78,3.779-3.78h13.229c1.891,0,3.779,1.892,3.779,3.78v81.26
		c0,1.891-1.89,3.779-3.779,3.779h-13.229l0,0l0,0l0,0l0,0l0,0l0,0l0,0l0,0l0,0l0,0l-37.796-49.134v47.244
		c0,1.89-1.89,3.778-3.779,3.778h-13.229c-1.891,0-3.779-1.89-3.779-3.778v-81.261c0-1.89,1.89-3.778,3.779-3.778
		C274.014,228.662,285.354,228.662,285.354,228.662z"></path>
</g>
</symbol></defs><use xlink:href="#lineIcon"></use></svg>