<svg xmlns="http://www.w3.org/2000/svg" xmlns:xlink="http://www.w3.org/1999/xlink" version="1.1" baseProfile="tiny" id="圖層_1" x="0px" y="0px" width="425.433" height="83.167" viewBox="0 0 425.433 83.167" xml:space="preserve">
<polygon points="39.613,0 32.48,4.685 25.615,83.166 32.336,83.166 39.614,0 "/>
<polygon points="21.639,11.803 15.396,83.166 20.438,83.166 26.989,8.29 "/>
<polygon points="12.589,17.747 6.865,83.166 11.067,83.166 17.047,14.82 "/>
<rect fill="none" width="425.433" height="83.166"/>
<path d="M3.37,83.026l5.497-62.834L5.3,22.534L0.008,83.026C0.004,83.074,0.002,83.12,0,83.167h3.352  C3.358,83.12,3.365,83.074,3.37,83.026"/>
<path d="M117.371,20.085c-0.314-1.113-0.68-2.186-1.123-3.215c-0.694-1.61-1.558-3.13-2.643-4.589  c-1.718-2.32-3.588-4.292-5.644-5.928c-5.283-4.204-11.804-6.197-20.194-6.197L58.59,0.044H46.332l-7.039,83.122H68.25h19.517  c8.216,0,14.64-1.915,19.863-5.94c2.187-1.688,4.166-3.741,5.975-6.186c0.022-0.027,0.039-0.057,0.061-0.086  c1.053-1.431,1.9-2.921,2.58-4.498c2.688-6.237,2.767-13.857,2.767-24.795C119.013,32.531,118.952,25.718,117.371,20.085   M66.01,23.765c0.471-0.15,0.975,0.102,1.13,0.57c0.019,0.053,0.336,0.897,1.266,1.389c0.091,0.048,0.18,0.096,0.282,0.137  c0.462,0.18,0.691,0.702,0.51,1.163c-0.133,0.34-0.45,0.547-0.792,0.565c-0.016,0.001-0.029,0.007-0.045,0.007  c-0.108,0-0.22-0.02-0.327-0.062c-1.977-0.772-2.576-2.561-2.602-2.637C65.28,24.425,65.539,23.918,66.01,23.765 M66.287,59.207  c-0.095,0-0.191-0.016-0.283-0.047c-0.467-0.157-0.723-0.656-0.572-1.124c0.026-0.076,0.625-1.864,2.602-2.637  c0.123-0.048,0.249-0.064,0.372-0.057c0.343,0.016,0.659,0.226,0.792,0.565c0.181,0.462-0.048,0.984-0.51,1.164  c-0.102,0.04-0.191,0.089-0.282,0.137c-0.938,0.497-1.252,1.352-1.267,1.391C67.01,58.972,66.661,59.207,66.287,59.207   M93.779,57.67c6.407,1.9,7.458,5.302,7.514,5.5c0.135,0.479-0.143,0.975-0.62,1.108c-0.082,0.024-0.165,0.035-0.245,0.035  c-0.392,0-0.753-0.259-0.864-0.656c-0.002-0.007-0.054-0.151-0.194-0.388c-0.489-0.825-2.071-2.771-6.523-3.995  c-1.803-0.496-4.078-0.874-6.942-1.009c-0.759-0.036-1.556-0.058-2.398-0.058h-0.293c-0.142,0-0.276,0.006-0.416,0.007  c-2.959,0.022-5.572,0.278-7.802,0.771c-0.01,0.016-0.02,0.031-0.029,0.046c-0.169,0.272-0.346,0.541-0.528,0.811  c-1.421,2.094-3.214,4.094-5.49,5.817c-0.163,0.123-0.353,0.183-0.541,0.183c-0.273,0-0.541-0.123-0.718-0.357  c-0.3-0.396-0.222-0.959,0.174-1.258c0.186-0.142,0.362-0.289,0.542-0.436c1.376-1.112,2.561-2.342,3.569-3.639  c0.093-0.12,0.18-0.243,0.27-0.364c0.056-0.075,0.112-0.149,0.168-0.225l0.006-0.009c0.131-0.181,0.257-0.359,0.381-0.54  c0.107-0.156,0.213-0.312,0.316-0.469c0.174-0.267,0.341-0.533,0.503-0.804c0.061-0.102,0.127-0.204,0.186-0.306  c0.851-1.462,1.525-2.954,2.065-4.408c1.395-3.765,1.868-7.274,2.025-9.332c0.087-1.15,0.077-1.848,0.077-1.88  c-0.004-0.073-0.014-0.14-0.018-0.212c-0.377-7.031-2.614-12.545-4.896-16.442c0.001,0,0.001,0,0.002,0.001  c-0.005-0.008-0.009-0.015-0.013-0.022c-0.232-0.394-0.46-0.772-0.69-1.132c-0.209-0.328-0.419-0.66-0.625-0.96  c-0.043-0.065-0.084-0.117-0.128-0.18c-0.038-0.055-0.075-0.103-0.113-0.158c-0.196-0.279-0.394-0.562-0.582-0.813  c-1.049-1.403-1.946-2.375-2.503-2.938c-0.349-0.352-0.574-0.557-0.587-0.568c-0.376-0.325-0.417-0.893-0.092-1.268  c0.327-0.376,0.895-0.414,1.267-0.091c0.187,0.162,2.32,2.064,4.641,5.591c0.212,0.321,0.423,0.639,0.637,0.988  c0.007,0.011,0.014,0.025,0.021,0.036c2.476,0.626,5.454,0.945,8.91,0.945h0.301c0.033,0,0.062-0.001,0.095-0.001  c0.189,0,0.369-0.005,0.554-0.007c4.044-0.049,7.051-0.547,9.272-1.228c4.041-1.237,5.5-3.067,5.957-3.843  c0.131-0.225,0.179-0.362,0.182-0.37c0.134-0.477,0.629-0.756,1.109-0.621c0.477,0.134,0.755,0.63,0.62,1.108  c-0.054,0.192-1.047,3.384-6.92,5.31c-3.119,4.522-4.912,10.632-4.912,16.831C89.46,47.61,90.998,53.236,93.779,57.67"/>
<path d="M150.887,0.128c-13.565,0-25.432,6.889-31.945,17.181c2.295,6.226,2.421,13.477,2.421,24.372  c0,11.692-0.142,19.19-2.959,25.726c-0.785,1.821-1.737,3.475-2.913,5.056c-0.593,0.801-1.204,1.545-1.826,2.263v7.325  c0,0,9.336,2.51,19.519,0c0.003-0.001,6.317-0.644,6.78-11.805c-3.934-1.115-7.674-2.822-11.087-5.118  c-0.412-0.276-0.521-0.836-0.244-1.247c0.276-0.412,0.834-0.521,1.247-0.245c6.162,4.147,13.426,6.338,21.007,6.338  s14.843-2.19,21.007-6.338c0.414-0.275,0.971-0.167,1.247,0.245c0.277,0.411,0.168,0.971-0.244,1.247  c-3.413,2.296-7.154,4.002-11.087,5.118c0.461,11.157,6.791,11.801,6.803,11.805c0,0,9.336,2.51,19.52,0V35.5  C188.133,15.965,171.458,0.128,150.887,0.128 M134.783,20.047c0.466-0.162,0.975,0.08,1.141,0.543  c0.021,0.054,0.368,0.911,1.44,1.302c0.466,0.169,0.707,0.685,0.537,1.151c-0.133,0.365-0.477,0.592-0.843,0.592  c-0.102,0-0.207-0.017-0.308-0.055c-1.907-0.692-2.494-2.319-2.519-2.388C134.068,20.724,134.315,20.211,134.783,20.047   M135.08,51.119c-0.099,0-0.199-0.017-0.297-0.051c-0.468-0.164-0.715-0.677-0.552-1.146c0.025-0.068,0.612-1.694,2.519-2.388  c0.47-0.17,0.983,0.072,1.151,0.538c0.17,0.465-0.071,0.98-0.537,1.149c-1.097,0.399-1.433,1.284-1.436,1.294  C135.799,50.886,135.451,51.119,135.08,51.119 M166.747,55.848c-0.084,0.024-0.168,0.035-0.251,0.035  c-0.39,0-0.749-0.255-0.862-0.646c-0.002-0.006-0.082-0.21-0.307-0.525c-0.594-0.831-2.234-2.462-6.382-3.439  c-1.892-0.396-3.883-0.646-5.9-0.748c-0.645-0.028-1.31-0.047-2.022-0.047h-0.27c-0.226,0-0.442,0.008-0.663,0.011  c-0.408,0.007-0.817,0.009-1.224,0.029c-0.04,0.002-0.078,0.005-0.118,0.006c-0.336,0.017-0.665,0.061-0.999,0.087  c-0.747,0.057-1.49,0.132-2.225,0.224c-0.764,0.104-1.526,0.215-2.267,0.361c-1.371,2.114-3.16,4.146-5.511,5.871  c-0.16,0.116-0.346,0.174-0.53,0.174c-0.277,0-0.549-0.127-0.726-0.368c-0.293-0.4-0.207-0.962,0.194-1.256  c0.183-0.134,0.354-0.276,0.53-0.414c0.128-0.101,0.261-0.198,0.385-0.3c1.62-1.347,2.949-3.009,4.063-4.797l0.111-0.178  c2.537-3.944,3.934-8.956,3.934-14.111c0-1.257-0.092-2.498-0.252-3.719c-0.756-4.458-2.34-8.08-3.974-10.812  c-0.075-0.11-0.14-0.228-0.216-0.336l-1.243-1.891c-1.329-1.84-2.504-3.038-3.054-3.562c-0.051-0.048-0.094-0.088-0.134-0.126  c-0.024-0.021-0.048-0.044-0.067-0.061c-0.029-0.026-0.058-0.053-0.077-0.07c-0.022-0.02-0.05-0.044-0.053-0.047  c-0.38-0.319-0.43-0.886-0.112-1.266c0.321-0.382,0.888-0.43,1.268-0.111c0.186,0.158,2.487,2.126,4.827,5.822  c0.636,0.137,1.284,0.255,1.94,0.358c0.654,0.102,1.315,0.188,1.983,0.258c4.249,0.449,8.726,0.238,12.754-0.644  c3.907-0.993,5.471-2.567,6.042-3.374c0.218-0.307,0.297-0.506,0.3-0.516c0.156-0.464,0.657-0.727,1.123-0.58  c0.466,0.146,0.734,0.63,0.596,1.1c-0.051,0.178-1.036,3.255-7.005,4.953c-2.76,4.03-4.286,9.206-4.286,14.624  c0,5.034,1.34,9.924,3.765,13.824c6.432,1.661,7.474,4.909,7.526,5.095C167.499,55.21,167.224,55.709,166.747,55.848"/>
<path d="M314.527,1.199L314.527,1.199c0,0-10.456-2.476-21.864,0c0,0-3.178,1.468-3.075,14.298c0.029,5.897,0.682,9.38,1.377,11.428  c3.649,0.727,7.179,1.941,10.446,3.639c0.44,0.229,0.612,0.771,0.383,1.211c-0.227,0.44-0.767,0.614-1.212,0.383  c-5.321-2.765-11.364-4.226-17.475-4.226c-6.111,0-12.154,1.462-17.476,4.227c-0.133,0.069-0.273,0.101-0.413,0.101  c-0.325,0-0.639-0.176-0.799-0.484c-0.228-0.44-0.057-0.982,0.383-1.212c3.287-1.708,6.84-2.928,10.512-3.652  c0.713-2.056,1.36-5.546,1.313-11.452c-0.063-12.83-3.075-14.261-3.075-14.261s-10.457-2.476-21.864,0c0,0-0.63,2.063-1.41,5.927  c0.306,1.047,0.483,2.141,0.483,3.276c0,3.236-0.969,5.687-2.19,7.505c-0.537,4.451-0.975,9.726-1.153,15.727  c0.41,0.278,0.82,0.557,1.221,0.858c7.509,5.626,8.104,16.366,7.898,23.956c-0.192,7.084-2.244,13.141-5.941,17.729  c0.337,1.935,0.692,3.887,1.093,5.878c0,0,10.457,2.502,21.864,0c0,0,3-1.482,2.897-14.447c-0.032-6.64-0.789-10.246-1.521-12.191  c-3.532-0.735-6.954-1.923-10.126-3.572c-0.439-0.228-0.61-0.771-0.383-1.212c0.229-0.439,0.77-0.613,1.212-0.382  c5.321,2.764,11.364,4.225,17.476,4.225c6.11,0,12.153-1.461,17.475-4.225c0.446-0.233,0.985-0.058,1.212,0.382  c0.229,0.441,0.058,0.983-0.383,1.211c-3.268,1.699-6.796,2.913-10.443,3.639c-0.817,2.08-1.615,5.752-1.563,12.163  c0.062,12.965,3.258,14.41,3.258,14.41s10.457,2.502,21.864,0C324.342,33.233,314.527,1.199,314.527,1.199 M298.386,38.652  c-0.103,0.018-0.209,0.019-0.316-0.001c-2.002-0.361-2.867-1.884-2.903-1.948c-0.24-0.435-0.083-0.982,0.351-1.222  c0.434-0.24,0.975-0.086,1.218,0.341c0.028,0.049,0.523,0.856,1.654,1.06c0.488,0.088,0.813,0.556,0.726,1.044  C299.044,38.306,298.745,38.588,298.386,38.652"/>
<path d="M247.228,36.389c-10.967-8.216-26.084-7.317-33.529-6.066c-1.375,5.139-4.307,5.984-4.469,6.026  c-0.077,0.02-0.153,0.029-0.229,0.029c-0.398,0-0.762-0.267-0.868-0.672c-0.125-0.481,0.162-0.971,0.643-1.096  c0.023-0.008,3.922-1.298,3.829-10.709c-0.04-9.429-3.943-10.661-3.983-10.671c-0.482-0.12-0.774-0.607-0.655-1.089  c0.121-0.48,0.609-0.774,1.088-0.655c0.187,0.046,3.975,1.098,5.054,8.384c0.602,0.243,1.279,0.504,2.043,0.77  c0.316,0.113,0.648,0.224,0.991,0.336c1.619,0.529,3.505,1.048,5.568,1.445c5.591,1.074,12.486,1.241,18.919-1.781  c0.03-0.013,0.061-0.027,0.09-0.041c0.304-0.132,0.597-0.282,0.882-0.439c0.017-0.008,0.03-0.015,0.047-0.022  c0,0,5.762-2.521,5.762-9.721c0-5.694-5.115-10.308-11.424-10.308h-29.907c-0.127,0-0.253,0.005-0.379,0.008  c-0.126-0.003-0.252-0.008-0.38-0.008c-10.143,0-18.864,5.929-22.578,14.355c4.262,6.017,6.753,13.262,6.753,21.051v7.105  c2.719,2.09,7.515,4.832,15.232,6.472c6.168,1.31,12.245,2.148,14.476,2.437c1.204-6.227,4.577-7.189,4.751-7.235  c0.478-0.123,0.971,0.16,1.096,0.643c0.126,0.48-0.162,0.971-0.642,1.096c-0.024,0.009-3.922,1.297-3.829,10.708  c0.039,9.419,3.959,10.664,3.998,10.677c0.47,0.136,0.754,0.626,0.626,1.099c-0.107,0.4-0.464,0.667-0.86,0.667  c-0.069,0-0.142-0.008-0.215-0.026c-0.176-0.044-3.588-0.979-4.866-7.267c-1.429-1.051-3.543-2.122-3.552-2.124  c-0.415-0.176-1.984-0.727-2.346-0.833c-2.324-0.789-4.473-1.401-6.455-1.849c-8.431-1.908-13.882-0.926-17.414,1.277v23.4  c1.797,0.886,3.829,1.406,5.908,1.406h32.788h0.23c0.211,0,0.421-0.008,0.629-0.018c13.36-0.34,23.698-8.597,24.136-24.753  C254.351,52.319,254.128,41.558,247.228,36.389 M205.185,16.602c0.468-0.161,0.975,0.086,1.138,0.549  c0.02,0.053,0.367,0.935,1.444,1.333c0.466,0.172,0.703,0.69,0.531,1.155c-0.135,0.362-0.477,0.586-0.843,0.586  c-0.104,0-0.209-0.017-0.311-0.055c-1.909-0.706-2.494-2.357-2.518-2.426C204.465,17.273,204.715,16.763,205.185,16.602   M230.097,51.035c-0.023,0.07-0.608,1.722-2.518,2.428c-0.104,0.038-0.208,0.055-0.313,0.055c-0.364,0-0.708-0.223-0.843-0.586  c-0.172-0.465,0.066-0.983,0.531-1.155c1.099-0.407,1.438-1.313,1.441-1.323c0.16-0.471,0.671-0.72,1.141-0.559  S230.258,50.566,230.097,51.035"/>
<polygon points="351.697,28.947 353.689,17.648 349.319,17.648 347.326,28.947 342.067,28.947 346.828,1.95 352.088,1.95   350.176,12.795 354.546,12.795 356.459,1.95 361.718,1.95 356.956,28.947 "/>
<path d="M374.937,26.52c-1.452,1.518-3.406,2.73-6.259,2.73c-2.852,0-4.377-1.212-5.295-2.73c-1.445-2.312-0.928-5.877-0.012-11.071  c0.916-5.196,1.655-8.759,3.915-11.073c1.453-1.516,3.407-2.729,6.26-2.729c2.851,0,4.379,1.213,5.297,2.729  c1.442,2.314,0.926,5.877,0.01,11.073C377.937,20.643,377.196,24.208,374.937,26.52 M374.28,7.562  c-0.188-0.606-0.628-1.062-1.591-1.062s-1.561,0.456-1.965,1.062c-0.851,1.251-1.52,4.626-2.094,7.887  c-0.576,3.26-1.097,6.634-0.688,7.886c0.19,0.607,0.627,1.062,1.591,1.062c0.963,0,1.562-0.455,1.965-1.062  c0.85-1.252,1.519-4.626,2.095-7.886C374.169,12.188,374.689,8.813,374.28,7.562"/>
<polygon points="392.263,6.803 388.359,28.947 383.1,28.947 387.004,6.803 382.56,6.803 383.416,1.949 397.564,1.949 396.708,6.803   "/>
<polygon points="396.32,28.947 401.081,1.95 413.229,1.95 412.373,6.803 405.483,6.803 404.406,12.908 410.334,12.908   409.477,17.761 403.551,17.761 402.435,24.093 409.323,24.093 408.468,28.947 "/>
<polygon points="412.429,28.947 417.19,1.95 422.449,1.95 418.544,24.093 425.433,24.093 424.576,28.947 "/>
<path d="M400.478,39.92h-13.32c-0.489-0.047-0.984-0.076-1.491-0.076c-7.071,0-12.75,4.617-12.75,12.256h0.002  c0,0.006-0.001,0.011-0.001,0.018c0,2.434,2.043,4.406,4.563,4.406s4.563-1.973,4.563-4.406c0-0.007-0.001-0.012-0.001-0.018h0.004  c0-2.451,1.726-3.82,3.619-3.82c1.893,0,3.619,1.312,3.619,3.876c0,1.825-1.059,3.82-3.786,3.82h-1.281  c-2.918,4.332,0,8.094,0,8.094h1.281c2.45,0,4.23,1.825,4.23,4.276c0,2.906-1.67,4.332-4.063,4.332  c-2.275,0-4.051-1.416-4.063-4.247c0-0.01,0.001-0.018,0.001-0.026c0-2.432-2.047-4.405-4.571-4.405  c-2.526,0-4.573,1.974-4.573,4.405c0,0.139,0.009,0.275,0.021,0.41c0.198,8.813,6.718,12.299,13.186,12.299  c6.959,0,13.194-3.99,13.194-12.483c0-4.846-2.395-7.297-4.565-8.836c2.004-1.311,4.12-3.477,4.12-7.924  c0-1.656-0.312-3.197-0.869-4.591h2.932c2.032,0,3.681-1.648,3.681-3.68C404.158,41.567,402.51,39.92,400.478,39.92"/>
<path d="M367.545,72.322c-0.07,0-0.136,0.01-0.203,0.015h-12.938l9.465-10.261c3.173-3.421,4.899-5.7,4.899-9.977  c0-7.638-5.346-12.256-12.694-12.256c-6.698,0-12.452,4.133-12.788,11.669c-0.034,0.215-0.056,0.433-0.056,0.657  c0,2.433,2.055,4.406,4.591,4.406s4.592-1.974,4.592-4.406c0-0.039-0.006-0.077-0.007-0.117c0.071-2.997,2.029-3.772,3.668-3.772  c2.339,0,3.563,1.539,3.563,3.764c0,1.71-0.557,2.734-2.005,4.332l-14.135,15.961c-4.743,5.271,0,8.436,0,8.436h24.046h0.002h0.001  h0.077v-0.005c1.844-0.051,3.327-1.919,3.327-4.219C370.95,74.215,369.426,72.322,367.545,72.322"/>
</svg>