<svg xmlns:xlink="http://www.w3.org/1999/xlink" xmlns="http://www.w3.org/2000/svg" width="32" height="32"><defs><symbol id="youtubeIcon" viewBox="0 0 566.93 566.93">
	<path d="M459.789,194.806c-4.245-15.788-16.693-28.232-32.479-32.483c-28.836-7.89-144.187-7.89-144.187-7.89
	s-115.345,0-144.181,7.591c-15.48,4.245-28.231,16.997-32.478,32.782c-7.589,28.834-7.589,88.634-7.589,88.634
	s0,60.101,7.589,88.635c4.25,15.782,16.693,28.229,32.479,32.479c29.139,7.893,144.184,7.893,144.184,7.893s115.346,0,144.182-7.591
	c15.787-4.249,28.232-16.692,32.483-32.479c7.586-28.837,7.586-88.634,7.586-88.634S467.686,223.64,459.789,194.806z
	 M246.403,338.684V228.195l95.918,55.245L246.403,338.684z"></path>
</symbol></defs><use xlink:href="#youtubeIcon" fill="#FFFFFF"></use></svg>